<?xml version="1.0" encoding="utf-8"?>
<!-- Generator: Adobe Illustrator 16.0.0, SVG Export Plug-In . SVG Version: 6.00 Build 0)  -->
<!DOCTYPE svg PUBLIC "-//W3C//DTD SVG 1.1//EN" "http://www.w3.org/Graphics/SVG/1.1/DTD/svg11.dtd">
<svg version="1.1" id="Layer_1" xmlns="http://www.w3.org/2000/svg" xmlns:xlink="http://www.w3.org/1999/xlink" x="0px" y="0px"
	 width="100px" height="100px" viewBox="0 0 100 100" enable-background="new 0 0 100 100" xml:space="preserve">
<g>
	<path d="M7.726,92.271c-1.967-1.965-1.967-5.152-0.002-7.122l77.43-77.424c1.965-1.967,5.154-1.967,7.122,0l0,0
		c1.965,1.967,1.965,5.156,0,7.122L14.848,92.271C12.88,94.241,9.693,94.241,7.726,92.271L7.726,92.271z"/>
	<path d="M7.727,7.727c1.966-1.967,5.153-1.967,7.122-0.002l77.426,77.429c1.967,1.966,1.967,5.153,0,7.122l0,0
		c-1.966,1.966-5.157,1.966-7.122,0L7.727,14.849C5.758,12.881,5.758,9.694,7.727,7.727L7.727,7.727z"/>
</g>
</svg>
