<?xml version="1.0" encoding="utf-8"?>
<!-- Generator: Adobe Illustrator 16.0.0, SVG Export Plug-In . SVG Version: 6.00 Build 0)  -->
<!DOCTYPE svg PUBLIC "-//W3C//DTD SVG 1.1//EN" "http://www.w3.org/Graphics/SVG/1.1/DTD/svg11.dtd">
<svg version="1.1" id="Layer_1" xmlns="http://www.w3.org/2000/svg" xmlns:xlink="http://www.w3.org/1999/xlink" x="0px" y="0px"
	 width="113px" height="100px" viewBox="0 0 113 100" enable-background="new 0 0 113 100" xml:space="preserve">
<path fill="#FFFFFF" d="M110.5,15.424c0,4.524-3.668,8.192-8.192,8.192H11.859c-4.524,0-8.192-3.668-8.192-8.192l0,0
	c0-4.524,3.668-8.192,8.192-8.192h90.449C106.832,7.232,110.5,10.9,110.5,15.424L110.5,15.424z"/>
<path fill="#FFFFFF" d="M110.5,50c0,4.524-3.668,8.192-8.192,8.192H11.859c-4.524,0-8.192-3.668-8.192-8.192l0,0
	c0-4.524,3.668-8.192,8.192-8.192h90.449C106.832,41.808,110.5,45.476,110.5,50L110.5,50z"/>
<path fill="#FFFFFF" d="M110.5,84.576c0,4.523-3.668,8.191-8.192,8.191H11.859c-4.524,0-8.192-3.668-8.192-8.191l0,0
	c0-4.525,3.668-8.193,8.192-8.193h90.449C106.832,76.383,110.5,80.051,110.5,84.576L110.5,84.576z"/>
</svg>
